<svg width="32" height="44" viewBox="0 0 32 44" fill="none" xmlns="http://www.w3.org/2000/svg">
<path d="M7.99951 10.0002V6.00024C7.99951 4.93938 8.42094 3.92196 9.17108 3.17182C9.92123 2.42167 10.9386 2.00024 11.9995 2.00024H19.9995C21.0604 2.00024 22.0778 2.42167 22.8279 3.17182C23.5781 3.92196 23.9995 4.93938 23.9995 6.00024V10.0002M29.9995 10.0002V38.0002C29.9995 39.0611 29.5781 40.0785 28.8279 40.8287C28.0778 41.5788 27.0604 42.0002 25.9995 42.0002H5.99951C4.93865 42.0002 3.92123 41.5788 3.17108 40.8287C2.42094 40.0785 1.99951 39.0611 1.99951 38.0002V10.0002H29.9995Z" stroke="#E73F5D" stroke-width="4" stroke-linecap="round" stroke-linejoin="round"/>
</svg>
